<?xml version="1.0" standalone="no"?>
<!DOCTYPE svg PUBLIC "-//W3C//DTD SVG 20010904//EN"
 "http://www.w3.org/TR/2001/REC-SVG-20010904/DTD/svg10.dtd">
<svg version="1.0" xmlns="http://www.w3.org/2000/svg"
 width="1024.000000pt" height="1024.000000pt" viewBox="0 0 1024.000000 1024.000000"
 preserveAspectRatio="xMidYMid meet">

<g transform="translate(0.000000,1024.000000) scale(0.100000,-0.100000)"
fill="#000000" stroke="none">
<path d="M5050 7870 c-84 -18 -143 -57 -282 -187 -76 -70 -269 -252 -430 -403
-161 -151 -316 -295 -343 -319 -28 -25 -138 -129 -245 -231 -107 -103 -240
-228 -295 -277 -55 -50 -118 -110 -140 -133 -22 -23 -83 -77 -135 -120 -68
-55 -101 -90 -114 -118 -18 -41 -18 -41 5 -89 58 -117 149 -121 275 -13 l69
60 5 -588 5 -587 28 -50 c37 -66 101 -141 146 -169 20 -13 65 -33 101 -46 66
-23 144 -28 807 -44 66 -1 97 14 135 65 23 30 35 127 20 156 -7 12 -29 25 -54
31 -52 13 -429 32 -623 32 -126 0 -145 2 -185 23 -24 12 -53 35 -64 50 -21 28
-21 42 -26 700 -4 502 -2 678 7 697 14 30 116 130 518 506 567 531 840 774
866 774 11 0 48 -26 82 -57 35 -32 121 -110 192 -173 71 -63 194 -176 275
-250 81 -74 189 -173 241 -220 141 -128 428 -401 478 -456 24 -27 62 -67 83
-89 l38 -41 2 -701 c2 -582 0 -704 -12 -718 -31 -37 -66 -45 -202 -45 -192 -1
-539 -17 -640 -31 -86 -12 -87 -12 -73 -33 9 -11 15 -43 15 -71 0 -37 6 -60
25 -87 40 -59 48 -61 239 -53 94 3 275 7 401 9 257 2 275 6 371 74 30 21 75
67 101 101 l46 62 8 112 c4 62 8 338 8 615 1 320 5 502 11 502 5 0 17 -11 26
-25 9 -14 39 -43 67 -65 43 -35 56 -40 101 -40 86 0 135 46 136 128 0 57 -17
87 -87 152 -32 30 -161 154 -286 277 l-229 223 4 347 c3 386 5 375 -64 439
-60 57 -85 64 -220 64 -177 -1 -236 -31 -246 -129 -5 -61 12 -115 45 -141 22
-17 41 -20 117 -20 l91 0 1 -150 c1 -89 -3 -150 -9 -150 -5 0 -41 31 -81 68
-39 37 -105 98 -147 134 -41 37 -131 119 -200 183 -68 65 -185 172 -259 238
-74 67 -167 152 -207 189 -40 37 -90 76 -111 87 -48 24 -122 33 -182 21z"/>
<path d="M5055 6901 c-82 -21 -148 -76 -175 -145 -17 -46 -12 -133 10 -177 40
-77 141 -127 234 -114 89 11 144 51 186 133 31 60 25 153 -13 211 -46 69 -162
113 -242 92z"/>
<path d="M5143 5870 c-80 -16 -115 -43 -152 -117 -46 -91 -10 -182 93 -235 31
-16 54 -19 112 -16 84 4 110 21 150 100 54 107 13 216 -98 262 -41 17 -44 18
-105 6z"/>
<path d="M5020 4420 c-215 -28 -478 -152 -695 -327 -84 -68 -108 -106 -102
-163 4 -36 13 -51 46 -83 39 -36 44 -38 98 -35 l57 3 70 83 c60 71 88 94 185
153 210 127 335 152 555 114 180 -32 302 -103 468 -275 84 -88 87 -90 133 -90
83 0 137 49 137 125 0 51 -28 93 -126 191 -108 108 -197 163 -376 233 -177 70
-307 90 -450 71z"/>
<path d="M4985 4003 c-162 -25 -307 -107 -386 -216 -48 -66 -36 -154 27 -202
26 -19 108 -19 124 0 22 26 139 106 188 127 33 15 75 23 143 26 133 6 184 -10
274 -89 77 -67 104 -83 153 -92 90 -17 152 95 108 196 -29 68 -198 194 -306
228 -65 21 -254 34 -325 22z"/>
<path d="M5017 3536 c-48 -18 -63 -30 -93 -82 -68 -115 -22 -293 90 -351 18
-10 55 -17 91 -17 90 0 134 29 181 117 45 86 47 144 9 224 -30 59 -65 89 -132
109 -57 17 -97 17 -146 0z"/>
</g>
</svg>
