<?xml version="1.0" encoding="iso-8859-1"?>
<!-- Uploaded to: SVG Repo, www.svgrepo.com, Generator: SVG Repo Mixer Tools -->
<svg version="1.1" id="Layer_1" xmlns="http://www.w3.org/2000/svg" xmlns:xlink="http://www.w3.org/1999/xlink" 
	 viewBox="0 0 512.001 512.001" xml:space="preserve">
<path style="fill:#7E8488;" d="M256.001,329.436c16.521,0,29.929,13.408,29.929,29.929c0,16.521-13.408,29.929-29.929,29.929
	s-29.929-13.408-29.929-29.929C226.072,342.844,239.48,329.436,256.001,329.436z"/>
<path style="fill:#9DA1A4;" d="M215.178,425.567l-22.626,22.626l-25.379-25.379l22.626-22.626
	c-4.31-6.943-7.542-14.725-9.457-22.865h-32.083v-35.914h32.083c1.915-8.141,5.148-15.922,9.457-22.865l-22.626-22.626
	l25.379-25.379l22.626,22.626c6.943-4.31,14.725-7.542,22.865-9.457v-32.083h35.914v32.083c8.141,1.915,15.922,5.148,22.865,9.457
	l22.626-22.626l25.379,25.379l-22.626,22.626c4.31,6.943,7.542,14.725,9.457,22.865h32.083v35.914H331.66
	c-1.915,8.141-5.148,15.922-9.457,22.865l22.626,22.626l-25.379,25.379l-22.626-22.626c-6.943,4.31-14.725,7.542-22.865,9.457
	v32.083h-35.914v-32.083C229.903,433.108,222.121,429.876,215.178,425.567z M285.929,359.364c0-16.521-13.408-29.929-29.929-29.929
	s-29.929,13.408-29.929,29.929c0,16.521,13.408,29.929,29.929,29.929S285.929,375.886,285.929,359.364z"/>
<path style="fill:#445764;" d="M256.001,78.037c16.521,0,29.929,13.408,29.929,29.929s-13.408,29.929-29.929,29.929
	s-29.929-13.408-29.929-29.929S239.48,78.037,256.001,78.037z"/>
<path style="fill:#E7ECED;" d="M34.529,215.708L256.001,12.194l221.471,203.514h-35.914H70.443H34.529z M256.001,137.893
	c16.521,0,29.929-13.408,29.929-29.929s-13.408-29.929-29.929-29.929s-29.929,13.408-29.929,29.929S239.48,137.893,256.001,137.893z
	"/>
<path style="fill:#445764;" d="M70.443,215.708v287.314h371.114V215.708H70.443z M296.822,425.566
	c-6.942,4.31-14.725,7.542-22.865,9.457v32.083h-35.914v-32.083c-8.141-1.915-15.922-5.148-22.865-9.457l-22.626,22.626
	l-25.379-25.379l22.626-22.626c-4.31-6.943-7.541-14.725-9.457-22.865h-32.083v-35.914h32.083
	c1.915-8.141,5.148-15.922,9.457-22.865l-22.626-22.626l25.379-25.381l22.626,22.626c6.942-4.31,14.725-7.542,22.865-9.457V251.62
	h35.914v32.083c8.141,1.915,15.922,5.148,22.865,9.457l22.626-22.626l25.379,25.381l-22.626,22.626
	c4.31,6.943,7.541,14.725,9.457,22.865h32.083v35.914h-32.083c-1.915,8.141-5.148,15.922-9.457,22.865l22.626,22.626l-25.379,25.379
	L296.822,425.566z"/>
<path style="fill:#B2B6B8;" d="M226.209,107.966c0-16.474,13.336-29.839,29.792-29.914V12.319L34.666,215.708H70.58h185.421V137.88
	C239.543,137.803,226.209,124.438,226.209,107.966z"/>
<path d="M450.536,224.687h49.976L256.001,0L11.489,224.687h49.976v269.357H22.558v17.957h466.886v-17.957h-38.907V224.687z
	 M57.569,206.73l26.056-23.943h262.161V164.83h-242.62L256.001,24.387l198.431,182.342H57.569V206.73z M79.422,272.573h62.85
	v-17.957h-62.85v-29.929h353.157v29.929h-62.85v17.957h62.85v221.471H79.422L79.422,272.573L79.422,272.573z"/>
<path d="M256.001,69.057c-21.453,0-38.907,17.454-38.907,38.907s17.454,38.907,38.907,38.907s38.907-17.454,38.907-38.907
	S277.453,69.057,256.001,69.057z M256.001,128.914c-11.551,0-20.95-9.399-20.95-20.95s9.399-20.95,20.95-20.95
	s20.95,9.399,20.95,20.95S267.552,128.914,256.001,128.914z"/>
<rect x="100.368" y="452.149" width="23.943" height="17.957"/>
<g>
	<rect x="136.283" y="452.149" style="fill:#FFFFFF;" width="23.943" height="17.957"/>
	<rect x="100.368" y="416.235" style="fill:#FFFFFF;" width="23.943" height="17.957"/>
</g>
<rect x="100.368" y="296.52" width="23.943" height="17.957"/>
<rect x="387.683" y="296.52" width="23.943" height="17.957"/>
<rect x="387.683" y="452.149" width="23.943" height="17.957"/>
<g>
	<rect x="351.768" y="452.149" style="fill:#FFFFFF;" width="23.943" height="17.957"/>
	<rect x="387.683" y="416.235" style="fill:#FFFFFF;" width="23.943" height="17.957"/>
</g>
<path d="M333.364,398.651c2.017-3.967,3.722-8.093,5.103-12.35h34.255V332.43h-34.255c-1.382-4.258-3.086-8.384-5.103-12.35
	l24.163-24.163l-38.078-38.078l-24.163,24.163c-3.967-2.017-8.093-3.722-12.35-5.103v-34.255h-53.871v34.255
	c-4.258,1.382-8.384,3.086-12.35,5.103l-24.163-24.163l-38.078,38.078l24.163,24.163c-2.017,3.967-3.722,8.093-5.103,12.35h-34.255
	v53.871h34.255c1.382,4.258,3.086,8.384,5.103,12.35l-24.163,24.163l38.078,38.078l24.163-24.163
	c3.966,2.017,8.093,3.722,12.35,5.103v34.255h53.871v-34.255c4.258-1.382,8.384-3.086,12.35-5.103l24.163,24.163l38.078-38.078
	L333.364,398.651z M319.449,435.495l-21.312-21.313l-6.049,3.754c-6.193,3.844-12.984,6.653-20.187,8.346l-6.922,1.629v30.216
	h-17.957v-30.216l-6.922-1.629c-7.203-1.694-13.995-4.502-20.187-8.346l-6.049-3.754l-21.312,21.313l-12.683-12.683l21.313-21.312
	l-3.754-6.049c-3.844-6.193-6.653-12.984-8.346-20.187l-1.629-6.922h-30.216v-17.957h30.216l1.629-6.922
	c1.694-7.203,4.502-13.995,8.346-20.187l3.754-6.049l-21.313-21.312l12.683-12.683l21.312,21.313l6.049-3.754
	c6.193-3.844,12.984-6.653,20.187-8.346l6.922-1.629V260.6h17.957v30.216l6.922,1.629c7.203,1.694,13.995,4.502,20.187,8.346
	l6.049,3.754l21.312-21.313l12.683,12.683l-21.313,21.312l3.754,6.049c3.844,6.193,6.653,12.984,8.346,20.187l1.629,6.922h30.216
	v17.957h-30.216l-1.629,6.922c-1.694,7.203-4.502,13.995-8.346,20.187l-3.754,6.049l21.313,21.312L319.449,435.495z"/>
<path d="M256.001,320.457c-21.453,0-38.907,17.454-38.907,38.907s17.454,38.907,38.907,38.907s38.907-17.454,38.907-38.907
	C294.908,337.911,277.453,320.457,256.001,320.457z M256.001,380.314c-11.551,0-20.95-9.399-20.95-20.95s9.399-20.95,20.95-20.95
	s20.95,9.399,20.95,20.95C276.951,370.917,267.552,380.314,256.001,380.314z"/>
</svg>